<mxfile host="app.diagrams.net" modified="2024-04-04T11:07:34.508Z" agent="Mozilla/5.0 (Macintosh; Intel Mac OS X 10_15_7) AppleWebKit/537.36 (KHTML, like Gecko) Chrome/123.0.0.0 Safari/537.36" etag="a1LhyfF_oAN6DX3qYhTP" version="24.0.7" type="google">
  <diagram name="PÃ¡gina-1" id="yLM20tmK7zHZF_akR7mQ">
    <mxGraphModel grid="1" page="1" gridSize="10" guides="1" tooltips="1" connect="1" arrows="1" fold="1" pageScale="1" pageWidth="827" pageHeight="1169" math="0" shadow="0">
      <root>
        <mxCell id="0" />
        <mxCell id="1" parent="0" />
        <mxCell id="-iqq22IW7l0obRijuN0T-21" style="edgeStyle=orthogonalEdgeStyle;rounded=0;orthogonalLoop=1;jettySize=auto;html=1;exitX=0.5;exitY=1;exitDx=0;exitDy=0;entryX=0.5;entryY=0;entryDx=0;entryDy=0;" edge="1" parent="1" source="-iqq22IW7l0obRijuN0T-1" target="-iqq22IW7l0obRijuN0T-4">
          <mxGeometry relative="1" as="geometry" />
        </mxCell>
        <mxCell id="-iqq22IW7l0obRijuN0T-22" style="edgeStyle=orthogonalEdgeStyle;rounded=0;orthogonalLoop=1;jettySize=auto;html=1;exitX=0.5;exitY=1;exitDx=0;exitDy=0;entryX=0.5;entryY=0;entryDx=0;entryDy=0;" edge="1" parent="1" source="-iqq22IW7l0obRijuN0T-1" target="-iqq22IW7l0obRijuN0T-2">
          <mxGeometry relative="1" as="geometry" />
        </mxCell>
        <mxCell id="-iqq22IW7l0obRijuN0T-23" style="edgeStyle=orthogonalEdgeStyle;rounded=0;orthogonalLoop=1;jettySize=auto;html=1;exitX=0.5;exitY=1;exitDx=0;exitDy=0;entryX=0.5;entryY=0;entryDx=0;entryDy=0;" edge="1" parent="1" source="-iqq22IW7l0obRijuN0T-1" target="-iqq22IW7l0obRijuN0T-6">
          <mxGeometry relative="1" as="geometry" />
        </mxCell>
        <mxCell id="-iqq22IW7l0obRijuN0T-24" style="edgeStyle=orthogonalEdgeStyle;rounded=0;orthogonalLoop=1;jettySize=auto;html=1;exitX=0.5;exitY=1;exitDx=0;exitDy=0;entryX=0.5;entryY=0;entryDx=0;entryDy=0;" edge="1" parent="1" source="-iqq22IW7l0obRijuN0T-1" target="-iqq22IW7l0obRijuN0T-3">
          <mxGeometry relative="1" as="geometry" />
        </mxCell>
        <mxCell id="-iqq22IW7l0obRijuN0T-25" style="edgeStyle=orthogonalEdgeStyle;rounded=0;orthogonalLoop=1;jettySize=auto;html=1;exitX=0.5;exitY=1;exitDx=0;exitDy=0;entryX=0.5;entryY=0;entryDx=0;entryDy=0;" edge="1" parent="1" source="-iqq22IW7l0obRijuN0T-1" target="-iqq22IW7l0obRijuN0T-5">
          <mxGeometry relative="1" as="geometry" />
        </mxCell>
        <mxCell id="-iqq22IW7l0obRijuN0T-1" value="Motor Sport" style="rounded=0;whiteSpace=wrap;html=1;" vertex="1" parent="1">
          <mxGeometry x="1121" y="180" width="120" height="60" as="geometry" />
        </mxCell>
        <mxCell id="-iqq22IW7l0obRijuN0T-29" style="edgeStyle=orthogonalEdgeStyle;rounded=0;orthogonalLoop=1;jettySize=auto;html=1;exitX=0.5;exitY=1;exitDx=0;exitDy=0;entryX=0.5;entryY=0;entryDx=0;entryDy=0;" edge="1" parent="1" source="-iqq22IW7l0obRijuN0T-2" target="-iqq22IW7l0obRijuN0T-11">
          <mxGeometry relative="1" as="geometry" />
        </mxCell>
        <mxCell id="-iqq22IW7l0obRijuN0T-30" style="edgeStyle=orthogonalEdgeStyle;rounded=0;orthogonalLoop=1;jettySize=auto;html=1;exitX=0.5;exitY=1;exitDx=0;exitDy=0;entryX=0.5;entryY=0;entryDx=0;entryDy=0;" edge="1" parent="1" source="-iqq22IW7l0obRijuN0T-2" target="-iqq22IW7l0obRijuN0T-12">
          <mxGeometry relative="1" as="geometry" />
        </mxCell>
        <mxCell id="-iqq22IW7l0obRijuN0T-31" style="edgeStyle=orthogonalEdgeStyle;rounded=0;orthogonalLoop=1;jettySize=auto;html=1;exitX=0.5;exitY=1;exitDx=0;exitDy=0;" edge="1" parent="1" source="-iqq22IW7l0obRijuN0T-2" target="-iqq22IW7l0obRijuN0T-10">
          <mxGeometry relative="1" as="geometry" />
        </mxCell>
        <mxCell id="-iqq22IW7l0obRijuN0T-2" value="MotoGP" style="rounded=0;whiteSpace=wrap;html=1;" vertex="1" parent="1">
          <mxGeometry x="680" y="370" width="120" height="60" as="geometry" />
        </mxCell>
        <mxCell id="-iqq22IW7l0obRijuN0T-34" style="edgeStyle=orthogonalEdgeStyle;rounded=0;orthogonalLoop=1;jettySize=auto;html=1;exitX=0.5;exitY=1;exitDx=0;exitDy=0;entryX=0.5;entryY=0;entryDx=0;entryDy=0;" edge="1" parent="1" source="-iqq22IW7l0obRijuN0T-3" target="-iqq22IW7l0obRijuN0T-16">
          <mxGeometry relative="1" as="geometry" />
        </mxCell>
        <mxCell id="-iqq22IW7l0obRijuN0T-35" style="edgeStyle=orthogonalEdgeStyle;rounded=0;orthogonalLoop=1;jettySize=auto;html=1;exitX=0.5;exitY=1;exitDx=0;exitDy=0;entryX=0.5;entryY=0;entryDx=0;entryDy=0;" edge="1" parent="1" source="-iqq22IW7l0obRijuN0T-3" target="-iqq22IW7l0obRijuN0T-15">
          <mxGeometry relative="1" as="geometry" />
        </mxCell>
        <mxCell id="-iqq22IW7l0obRijuN0T-3" value="Rally" style="rounded=0;whiteSpace=wrap;html=1;" vertex="1" parent="1">
          <mxGeometry x="1480" y="370" width="120" height="60" as="geometry" />
        </mxCell>
        <mxCell id="-iqq22IW7l0obRijuN0T-26" style="edgeStyle=orthogonalEdgeStyle;rounded=0;orthogonalLoop=1;jettySize=auto;html=1;exitX=0.5;exitY=1;exitDx=0;exitDy=0;entryX=0.5;entryY=0;entryDx=0;entryDy=0;" edge="1" parent="1" source="-iqq22IW7l0obRijuN0T-4" target="-iqq22IW7l0obRijuN0T-9">
          <mxGeometry relative="1" as="geometry" />
        </mxCell>
        <mxCell id="-iqq22IW7l0obRijuN0T-27" style="edgeStyle=orthogonalEdgeStyle;rounded=0;orthogonalLoop=1;jettySize=auto;html=1;exitX=0.5;exitY=1;exitDx=0;exitDy=0;entryX=0.5;entryY=0;entryDx=0;entryDy=0;" edge="1" parent="1" source="-iqq22IW7l0obRijuN0T-4" target="-iqq22IW7l0obRijuN0T-8">
          <mxGeometry relative="1" as="geometry" />
        </mxCell>
        <mxCell id="-iqq22IW7l0obRijuN0T-28" style="edgeStyle=orthogonalEdgeStyle;rounded=0;orthogonalLoop=1;jettySize=auto;html=1;exitX=0.5;exitY=1;exitDx=0;exitDy=0;entryX=0.5;entryY=0;entryDx=0;entryDy=0;" edge="1" parent="1" source="-iqq22IW7l0obRijuN0T-4" target="-iqq22IW7l0obRijuN0T-7">
          <mxGeometry relative="1" as="geometry" />
        </mxCell>
        <mxCell id="-iqq22IW7l0obRijuN0T-4" value="Formula 1" style="rounded=0;whiteSpace=wrap;html=1;" vertex="1" parent="1">
          <mxGeometry x="160" y="370" width="120" height="60" as="geometry" />
        </mxCell>
        <mxCell id="-iqq22IW7l0obRijuN0T-36" style="edgeStyle=orthogonalEdgeStyle;rounded=0;orthogonalLoop=1;jettySize=auto;html=1;exitX=0.5;exitY=1;exitDx=0;exitDy=0;entryX=0.5;entryY=0;entryDx=0;entryDy=0;" edge="1" parent="1" source="-iqq22IW7l0obRijuN0T-5" target="-iqq22IW7l0obRijuN0T-17">
          <mxGeometry relative="1" as="geometry" />
        </mxCell>
        <mxCell id="-iqq22IW7l0obRijuN0T-37" style="edgeStyle=orthogonalEdgeStyle;rounded=0;orthogonalLoop=1;jettySize=auto;html=1;exitX=0.5;exitY=1;exitDx=0;exitDy=0;entryX=0.5;entryY=0;entryDx=0;entryDy=0;" edge="1" parent="1" source="-iqq22IW7l0obRijuN0T-5" target="-iqq22IW7l0obRijuN0T-18">
          <mxGeometry relative="1" as="geometry" />
        </mxCell>
        <mxCell id="-iqq22IW7l0obRijuN0T-38" style="edgeStyle=orthogonalEdgeStyle;rounded=0;orthogonalLoop=1;jettySize=auto;html=1;exitX=0.5;exitY=1;exitDx=0;exitDy=0;entryX=0.5;entryY=0;entryDx=0;entryDy=0;" edge="1" parent="1" source="-iqq22IW7l0obRijuN0T-5" target="-iqq22IW7l0obRijuN0T-20">
          <mxGeometry relative="1" as="geometry" />
        </mxCell>
        <mxCell id="-iqq22IW7l0obRijuN0T-5" value="IndyCar" style="rounded=0;whiteSpace=wrap;html=1;" vertex="1" parent="1">
          <mxGeometry x="1920" y="370" width="120" height="60" as="geometry" />
        </mxCell>
        <mxCell id="-iqq22IW7l0obRijuN0T-32" style="edgeStyle=orthogonalEdgeStyle;rounded=0;orthogonalLoop=1;jettySize=auto;html=1;exitX=0.5;exitY=1;exitDx=0;exitDy=0;entryX=0.5;entryY=0;entryDx=0;entryDy=0;" edge="1" parent="1" source="-iqq22IW7l0obRijuN0T-6" target="-iqq22IW7l0obRijuN0T-14">
          <mxGeometry relative="1" as="geometry" />
        </mxCell>
        <mxCell id="-iqq22IW7l0obRijuN0T-33" style="edgeStyle=orthogonalEdgeStyle;rounded=0;orthogonalLoop=1;jettySize=auto;html=1;exitX=0.5;exitY=1;exitDx=0;exitDy=0;entryX=0.5;entryY=0;entryDx=0;entryDy=0;" edge="1" parent="1" source="-iqq22IW7l0obRijuN0T-6" target="-iqq22IW7l0obRijuN0T-13">
          <mxGeometry relative="1" as="geometry" />
        </mxCell>
        <mxCell id="-iqq22IW7l0obRijuN0T-6" value="Nascar" style="rounded=0;whiteSpace=wrap;html=1;" vertex="1" parent="1">
          <mxGeometry x="1121" y="370" width="120" height="60" as="geometry" />
        </mxCell>
        <mxCell id="-iqq22IW7l0obRijuN0T-7" value="Formula E" style="rounded=0;whiteSpace=wrap;html=1;" vertex="1" parent="1">
          <mxGeometry x="320" y="560" width="120" height="60" as="geometry" />
        </mxCell>
        <mxCell id="-iqq22IW7l0obRijuN0T-8" value="Formula 3" style="rounded=0;whiteSpace=wrap;html=1;" vertex="1" parent="1">
          <mxGeometry x="160" y="560" width="120" height="60" as="geometry" />
        </mxCell>
        <mxCell id="-iqq22IW7l0obRijuN0T-9" value="Formula 2" style="rounded=0;whiteSpace=wrap;html=1;" vertex="1" parent="1">
          <mxGeometry y="560" width="120" height="60" as="geometry" />
        </mxCell>
        <mxCell id="-iqq22IW7l0obRijuN0T-10" value="Moto E" style="rounded=0;whiteSpace=wrap;html=1;" vertex="1" parent="1">
          <mxGeometry x="840" y="560" width="120" height="60" as="geometry" />
        </mxCell>
        <mxCell id="-iqq22IW7l0obRijuN0T-11" value="Moto 2" style="rounded=0;whiteSpace=wrap;html=1;" vertex="1" parent="1">
          <mxGeometry x="520" y="560" width="120" height="60" as="geometry" />
        </mxCell>
        <mxCell id="-iqq22IW7l0obRijuN0T-12" value="Moto 3" style="rounded=0;whiteSpace=wrap;html=1;" vertex="1" parent="1">
          <mxGeometry x="680" y="560" width="120" height="60" as="geometry" />
        </mxCell>
        <mxCell id="-iqq22IW7l0obRijuN0T-13" value="Camping World Truck Series" style="rounded=0;whiteSpace=wrap;html=1;" vertex="1" parent="1">
          <mxGeometry x="1200" y="560" width="120" height="60" as="geometry" />
        </mxCell>
        <mxCell id="-iqq22IW7l0obRijuN0T-14" value="Xfinity Series" style="rounded=0;whiteSpace=wrap;html=1;" vertex="1" parent="1">
          <mxGeometry x="1040" y="560" width="120" height="60" as="geometry" />
        </mxCell>
        <mxCell id="-iqq22IW7l0obRijuN0T-15" value="Rally 3" style="rounded=0;whiteSpace=wrap;html=1;" vertex="1" parent="1">
          <mxGeometry x="1560" y="560" width="120" height="60" as="geometry" />
        </mxCell>
        <mxCell id="-iqq22IW7l0obRijuN0T-16" value="Rally 2" style="rounded=0;whiteSpace=wrap;html=1;" vertex="1" parent="1">
          <mxGeometry x="1400" y="560" width="120" height="60" as="geometry" />
        </mxCell>
        <mxCell id="-iqq22IW7l0obRijuN0T-17" value="Pro Mazda Championship" style="rounded=0;whiteSpace=wrap;html=1;" vertex="1" parent="1">
          <mxGeometry x="1920" y="560" width="120" height="60" as="geometry" />
        </mxCell>
        <mxCell id="-iqq22IW7l0obRijuN0T-18" value="Indy Lights" style="rounded=0;whiteSpace=wrap;html=1;" vertex="1" parent="1">
          <mxGeometry x="1760" y="560" width="120" height="60" as="geometry" />
        </mxCell>
        <mxCell id="-iqq22IW7l0obRijuN0T-20" value="USF2000" style="rounded=0;whiteSpace=wrap;html=1;" vertex="1" parent="1">
          <mxGeometry x="2080" y="560" width="120" height="60" as="geometry" />
        </mxCell>
      </root>
    </mxGraphModel>
  </diagram>
</mxfile>
